<?xml version="1.0" encoding="UTF-8" standalone="no"?>
<!-- Bath tub by Moini — https://openclipart.org/detail/151903/bath-tub — CC0 1.0 -->
<svg
    xmlns:rdf="http://www.w3.org/1999/02/22-rdf-syntax-ns#"
    xmlns="http://www.w3.org/2000/svg"
    xmlns:cc="http://creativecommons.org/ns#"
    xmlns:dc="http://purl.org/dc/elements/1.1/"
    id="svg3659"
    viewBox="0 0 829.45 535.11"
    version="1.1"
  >
  <g
      id="layer1"
      transform="translate(134.73 -304.81)"
    >
    <path
        id="path3324"
        style="fill-rule:evenodd;fill:#194a70"
        d="m-67.856 403.33-8.337-0.89289-5.6573-2.0834-4.4662 1.1906h-13.994l-0.2977-3.5716 34.837-17.56-0.5955 23.513 0.2977-1.7858m8.337-26.49c10.246-12.808 22.519-20.045 41.685-8.3338l7.4438 7.7385c-1.1375 2.4497-2.2598 4.8965 2.0842 6.2503 2.1605 4.1138 3.6799 9.5091 6.8483 11.608 9.7134 0.826 8.5924-2.4093 9.8257-4.7622-0.3113-2.9335-2.2164-6.6636-4.764-10.715 1.8632-1.9587 2.3953-4.3609 0.8933-7.4409l-5.0618-0.8929-4.764-7.4409c-13.04-14.82-29.129-19.62-50.021-8.64l1.4888-17.858c3.6887-5.0116 8.2734-10.349 0-11.012 0.9458-7.0966-4.5203-7.7837-8.9325-9.5243-5.3885 3.0741-13.389 0.0569-15.781 10.12l-29.775-0.59525-2.382-8.0362c4.4393-4.6127 3.6998-7.7464 0.2978-10.12l-7.4438-1.1905c-2.5792 4.8114-5.0118 9.5862 1.191 12.203l-1.191 6.548c-18.667 1.94-4.5635 13.089-2.2076 12.029l1.6121 36.576c-7.5936 0.55046-9.3778 10.354-8.0392 10.923-1.4627 5.3721-2.2859 10.616 1.7864 14.882 4.3034 0.33756 8.8034 0.34741 6.5506 11.608h-8.6348l-4.4663 3.8692 0.5956 18.751c-0.5163 4.2928-1.5256 9.2427 1.1909 9.2267 1.9231-0.70713 2.7048 2.0086 2.3821 8.0362l0.8932 102.09c-7.6818 9.7772 0.191 7.893 0.5955 11.608v17.56l-7.4437 80.957c-2.375 18.923-4.6942 37.832-2.6798 55.658 2.7917 11.553 2.8243 26.415 10.719 31.847v50.003c-0.3565 5.5984-2.2619 5.7776-4.1685 5.9527-3.799 2.7707-3.8428 5.1661 0.2978 7.1432 11.277 1.0948 13.905-0.2806 20.247-0.59527 8.3116-2.9062 2.5868-5.6363 0.7595-5.2663-2.6854-1.2021-4.6983-3.6408-5.2257-6.9367l0.2977-13.394c5.3351 0.24735 9.8949 2.0445 16.674-0.59528-0.5314-0.0518 15.132-2.4682 0-7.7385l-2.382-5.3575 0.2978-16.668c12.178-5.4076 16.848-16.819 25.246-25.251v22.73c-5.2046 7.0911-2.5369 10.248 1.6843 12.628l-0.4933 20.502c-4.4604 4.5678-16.915 9.8551-0.3999 12.925l20.263 0.24656c5.432-3.3916 13.576-6.2619-0.8421-13.469l-0.451-20.051c6.2296-8.7948 1.4594-9.8926 0.451-13.623l5.2996-0.34867c4.7534 7.6702 6.5072 2.1012 9.7571-2.1258l32.104-0.0511c7.4165-0.0269 15.151-1.6416 21.054 5.8929 9.5765 4.793 9.7957 10.436 10.948 15.995-0.2665 12.098-4.3051 15.713-7.5795 21.046-6.0169 7.978-12.559 16.147-10.106 21.046-1.1739 4.3858-2.1797 8.9009 6.7373 21.046l21.054-1.6837c3.3623-4.2229 6.2491-9.4554 3.3687-26.939-0.2799-9.96 1.3172-15.698 4.2108-18.52 5.2994-12.711 11.644-18.629 18.528-21.046l17.686-17.679 3.3687-6.7347 334.34-10.102c-2.7477 5.3473 2.6153 6.9527 10.106 7.5766 11.388-2.262 7.466 9.3889 10.948 14.311 3.1563 11.824 10.695 17.077 18.528 21.888 12.378 6.4541 13.408 12.908 17.685 19.362 5.1071 6.016 3.4915 10.688 5.053 15.995-2.5768 4.1992-4.7056 8.4879-3.3687 13.469 0.6929 12.977 4.6474 13.727 8.4217 15.153l26.107-1.6837c1.5404-4.9142 3.9198-8.9898 1.6842-17.679-1.9468-8.2154-8.5612-17.097-16.001-26.097-7.1707-13.157 0.087-22.708 5.053-32.832 4.5474-6.1176 7.0312-14.298 10.106-21.888 2.3114-4.836 3.48-8.5296 4.2109-11.786 3.0313 0.89634 5.327-1.149 7.5794-3.3674 1.2487-3.648 1.0307-7.296-1.6843-10.944l-2.5265-0.84183c4.804 0.0318 7.6313-1.9125 9.2637-5.0511 11.31-11.786 14.979-23.571 18.528-35.357 8.6399-24.038 16.564-37.337 24.423-49.669 16.778-27.493 29.85-55.995 37.897-85.868 34.029-1.7774 74.599-11.481 77.675-15.451 20.347-26.267-24.476-37.922-32.198-36.743-74.178-20.359-483.41-31.682-718.81-0.42092l1.4201-49.064 1.191-10.12 5.6573 0.29763c11.413 4.8904 8.2062-9.3567 6.8482-8.0362 9.2748 1.6213 7.7347-20.514 0-16.37v-5.0598c-3.0762-6.7422-4.8387-2.9786-6.8482-1.1905l-0.2978 5.3574v6.2504l-5.8398-0.77701 1.6843-29.885m-47.653-39.108 0.2977 35.542h2.6798c-0.7693 4.2067-0.6168 7.6762 4.1685 7.4409 13.366 3.5664 16.124-5.2474 23.522-8.6314 7.8497-3.5902 8.9545-7.1432 12.803-10.715l-0.5955-11.608-22.331-0.29764c-3.5491-5.3762-0.1437-9.0145 0.2977-13.394l-20.842 1.6625zm30.668 87.33 7.4437-0.29764-3.8707 64.884c-11.082 3.1629-22.095 6.4217-27.691 17.263l0.5955-66.968 6.8483-12.501 16.674-2.3811zm-24.118 92.862v22.025c3.7786 0.95436 3.9351 4.3225 4.4662 7.4409h13.697c4.8236-0.67786 11.628 0.29455 10.124-5.6551l-0.8933-12.798c-10.575-1.2644-20.172-4.1588-27.393-11.012zm0.2977 39.883 1.6421-4.4135 17.414-0.3487c2.5754 1.197 7.9772-1.1377 6.5505 5.0598v154.17c-4.7559 17.541-14.111 27.42-23.522 37.204l-2.0843-191.68zm-13.696 201.2 0.5955 21.43 2.6797-0.29764-0.2978-5.0598s2.0843 0.89288 1.7866-0.89293c-0.2978-1.7858 0.2977-15.477 0.2977-15.477l-5.0617 0.29764zm0-7.4408 5.3594 0.59528-2.382-191.68-2.6797 0.29763-1.4888 2.9764 1.1911 187.81zm5.6572-321.74-5.6572 0.59527-1.4888 111.32 6.5505 0.59528 0.5955-112.51zm102.74 300.57c-39.264-7.17-33.476-56.47-40.424-93.86l-8.0006-62.717-1.6843 0.42091-0.4211 142.27c0.3943-0.55183 7.1145 1.5767 2.5265 9.6811-0.8295 1.4653-0.8422 6.3138-0.8422 6.3138h6.3163c2.6681-5.0419 6.3322-3.1154 10.106-0.4209l32.423-1.6837zm-118.82 11.036v-91.374c-1.8012 15.562-5.5043 33.091-5.0618 50.896-0.7871 10.052 1.0896 33.357 5.0618 40.478z"
    />
  </g>
  <metadata>
    <rdf:RDF>
      <cc:Work>
        <dc:format>image/svg+xml</dc:format>
        <dc:type rdf:resource="http://purl.org/dc/dcmitype/StillImage"/>
        <cc:license rdf:resource="http://creativecommons.org/licenses/publicdomain/"/>
        <dc:publisher>
          <cc:Agent rdf:about="http://openclipart.org/">
            <dc:title>Openclipart</dc:title>
          </cc:Agent>
        </dc:publisher>
        <dc:title>Bath tub</dc:title>
        <dc:date>2011-07-26T10:22:46</dc:date>
        <dc:description>Silhouette of an old-fashioned bath tub with fittings.</dc:description>
        <dc:source>https://openclipart.org/detail/151903/bath-tub-by-moini</dc:source>
        <dc:creator>
          <cc:Agent>
            <dc:title>Moini</dc:title>
          </cc:Agent>
        </dc:creator>
        <dc:subject>
          <rdf:Bag>
            <rdf:li>bath</rdf:li>
            <rdf:li>bath tub</rdf:li>
            <rdf:li>bathe</rdf:li>
            <rdf:li>bathtub</rdf:li>
            <rdf:li>shower</rdf:li>
            <rdf:li>silhouette</rdf:li>
            <rdf:li>tub</rdf:li>
          </rdf:Bag>
        </dc:subject>
      </cc:Work>
      <cc:License rdf:about="http://creativecommons.org/licenses/publicdomain/">
        <cc:permits rdf:resource="http://creativecommons.org/ns#Reproduction"/>
        <cc:permits rdf:resource="http://creativecommons.org/ns#Distribution"/>
        <cc:permits rdf:resource="http://creativecommons.org/ns#DerivativeWorks"/>
      </cc:License>
    </rdf:RDF>
  </metadata>
</svg>
