<!-- Duck icon by Manuela (via Noun Project) — https://openclipart.org/detail/348177/duck — CC0 1.0 -->
<svg version="1.1" viewBox="-10.187 -45.922 99.357 69.239" xmlns="http://www.w3.org/2000/svg">
<path fill="#967b1f" d="
M 0 0
l -6.436 -4.34
c 0 0 26.712 -7.968 43.114 -7.968
c 11.254 0 20.963 -3.163 17.224 -9.721
c -3.751 -6.559 -3.751 -24.824 11.241 -23.893
c 0 0 10.322 0 11.254 9.832
c 0 0 -0.821 3.629 12.773 6.448
c 0 0 2.33 1.397 -1.888 3.286
c 0 0 -20.619 -1.422 -18.731 3.739
c 0 0 -0.466 4.475 6.436 7.147
c 11.83 4.573 23.672 42.416 -25.657 38.787
c 0 0 -19.333 -0.821 -34.791 -9.733
c 0 0 -17.702 -8.066 -24.726 -9.955
l 10.187 -3.629
z" />
</svg>
